<svg width="97" height="152" viewBox="0 0 97 152" fill="none" xmlns="http://www.w3.org/2000/svg">
<path d="M70.1265 28.5034L55.4703 40.4841L70.1265 52.4647V28.5034Z" fill="#F5F5F5"/>
<path d="M5.88977 0V103.375H91.5352V0H5.88977ZM78.6859 92.676H70.1264V63.5268L48.7176 46.0151L27.3087 63.5268V92.676H18.7391V10.4364L48.7176 34.9529L78.696 10.4364V92.676H78.6859Z" fill="#F5F5F5"/>
<path d="M27.2985 52.4647L41.9445 40.4841L27.2985 28.5034V52.4647Z" fill="#F5F5F5"/>
<path d="M4.2165 137.063L10.5659 117.78H15.7133L22.1411 137.063H18.0257L16.9544 133.392H9.377L8.26651 137.063H4.2165ZM10.2915 130.387H16.066L13.231 120.681L10.2915 130.387ZM38.8062 137.403C37.16 137.403 35.8057 137.242 34.7431 136.92C33.6892 136.598 32.8662 136.145 32.2739 135.561C31.6904 134.978 31.281 134.294 31.0458 133.51C30.8194 132.726 30.7062 131.872 30.7062 130.949V117.767H34.5863V131.119C34.5863 132.391 34.9521 133.249 35.6838 133.693C36.4241 134.137 37.4649 134.359 38.8062 134.359C40.1649 134.359 41.1665 134.133 41.811 133.68C42.4643 133.227 42.7909 132.373 42.7909 131.119V117.767H46.671V130.792C46.671 131.707 46.5622 132.565 46.3444 133.366C46.1267 134.168 45.7347 134.873 45.1686 135.483C44.6112 136.084 43.8186 136.554 42.7909 136.894C41.7631 137.233 40.4349 137.403 38.8062 137.403ZM60.6841 131.289V137.063H56.8039V117.78H60.6841V127.134L68.1831 117.78H72.4683L65.5702 126.39L72.9517 137.063H68.575L62.8136 128.624L60.6841 131.289ZM80.6545 134.163H84.1689V120.667H80.6545V117.78H91.5242V120.667H88.036V134.163H91.5242V137.063H80.6545V134.163Z" fill="#F5F5F5"/>
</svg>
