<?xml version="1.0" encoding="UTF-8"?>
<svg id="Layer_1" xmlns="http://www.w3.org/2000/svg" version="1.1" viewBox="0 0 24 24">
  <!-- Generator: Adobe Illustrator 29.7.0, SVG Export Plug-In . SVG Version: 2.1.1 Build 138)  -->
  <path d="M20.3,5.7c0,0,0-.1,0-.2,0-1.4-.9-2.6-2.7-3.4h0s0,0,0,0c-1.5-.8-3.5-1.2-5.7-1.2s-4.1.4-5.7,1.2c0,0,0,0,0,0-1.7.9-2.6,2.1-2.6,3.4s0,.1,0,.2c0,0,0,0,0,.1,0,0,0,.1,0,.2,0,0,0,0,0,.1,0,0,0,.1,0,.2,0,0,0,0,0,.1,0,0,0,.1,0,.2,0,0,0,0,0,.1,0,0,0,.1,0,.2,0,0,0,0,0,.1,0,0,0,.1,0,.2,0,0,0,0,0,.1,0,.6.2,1.3.6,1.8-.4.6-.6,1.2-.6,1.8s0,.1,0,.2c0,0,0,0,0,.1,0,0,0,.1,0,.2,0,0,0,0,0,.1,0,0,0,.1,0,.2,0,0,0,0,0,.1,0,0,0,.1,0,.2,0,0,0,0,0,.1,0,0,0,.1,0,.2,0,0,0,0,0,.1,0,0,0,.1,0,.2,0,0,0,0,0,.1,0,.6.2,1.3.6,1.8-.4.6-.6,1.2-.6,1.8s0,.1,0,.2c0,0,0,0,0,.1,0,0,0,.1,0,.2,0,0,0,0,0,.1,0,0,0,.1,0,.2,0,0,0,0,0,.1,0,0,0,.1,0,.2,0,0,0,0,0,.1,0,0,0,.1,0,.2,0,0,0,0,0,.1,0,0,0,.1,0,.2,0,0,0,0,0,.1,0,1.4.9,2.6,2.7,3.4,0,0,0,0,0,0,1.5.8,3.5,1.2,5.7,1.2s4.1-.4,5.7-1.2c0,0,0,0,0,0,1.7-.9,2.7-2.1,2.7-3.4s0,0,0-.1c0,0,0-.1,0-.2s0,0,0-.1c0,0,0-.1,0-.2s0,0,0-.1c0,0,0-.1,0-.2s0,0,0-.1c0,0,0-.1,0-.2s0,0,0-.1c0,0,0-.1,0-.2s0,0,0-.1c0,0,0-.1,0-.2,0-.6-.2-1.2-.6-1.8.4-.6.6-1.2.6-1.8s0,0,0-.1c0,0,0-.1,0-.2s0,0,0-.1c0,0,0-.1,0-.2s0,0,0-.1c0,0,0-.1,0-.2s0,0,0-.1c0,0,0-.1,0-.2s0,0,0-.1c0,0,0-.1,0-.2s0,0,0-.1c0,0,0-.1,0-.2,0-.6-.2-1.2-.6-1.8.4-.6.6-1.2.6-1.8s0,0,0-.1c0,0,0-.1,0-.2s0,0,0-.1c0,0,0-.1,0-.2s0,0,0-.1c0,0,0-.1,0-.2s0,0,0-.1c0,0,0-.1,0-.2s0,0,0-.1c0,0,0-.1,0-.2s0,0,0-.1ZM18.7,11c0,.7-.6,1.4-1.7,2,0,0,0,0,0,0-1.3.7-3.1,1-4.9,1s-3.6-.4-4.9-1c0,0,0,0,0,0-1.1-.6-1.7-1.3-1.7-2s0-.4.2-.6c.2.2.5.3.8.5,0,0,0,0,0,0,1.5.8,3.5,1.2,5.7,1.2,2.1,0,4.1-.4,5.7-1.2,0,0,0,0,0,0,.3-.1.6-.3.8-.5.1.2.2.4.2.6ZM7.4,7.5c.4-.4,1.2-1.2,2.8-2l1.6.8c-2,.8-3.7,1.2-4.4,1.2ZM13.8,7.3l1.5.8c-1.3.3-2.8.5-4.2.4,1-.3,1.9-.7,2.7-1.1ZM18,4.3c.4.4.6.8.6,1.2,0,.6-.5,1.2-1.4,1.8l-1.7-.9c1-.6,2-1.3,2.5-2.1ZM13.8,5.5l-1.6-.8c2-.8,3.7-1.2,4.4-1.2-.4.4-1.2,1.2-2.8,2ZM13,2.6c-1,.3-1.9.7-2.7,1.1l-1.5-.8c1.3-.3,2.8-.5,4.2-.4ZM6.7,3.8l1.7.9c-1,.6-2,1.3-2.5,2.1-.4-.4-.6-.8-.6-1.2,0-.6.5-1.2,1.4-1.8ZM16.9,18.5s0,0,0,0c-1.3.7-3.1,1-4.9,1s-3.6-.4-4.9-1c0,0,0,0,0,0-1.1-.6-1.7-1.3-1.7-2s0-.4.2-.6c.2.2.5.3.8.5,1.5.8,3.5,1.2,5.7,1.2s4.1-.4,5.7-1.2c0,0,0,0,0,0,.3-.1.5-.3.8-.5.1.2.2.4.2.6,0,.7-.6,1.4-1.7,2Z"/>
</svg>